<svg width="17" height="18" viewBox="0 0 17 18" fill="none" xmlns="http://www.w3.org/2000/svg">
<path d="M15.7229 14.929C16.3557 15.6321 16.3557 16.771 15.7229 17.4741C15.409 17.8256 14.994 18 14.5789 18C14.1638 18 13.7497 17.8242 13.4338 17.4727L8.09937 11.5486L2.76543 17.4713C2.44905 17.8256 2.03446 18 1.61987 18C1.20529 18 0.791207 17.8256 0.474572 17.4713C-0.158191 16.7682 -0.158191 15.6292 0.474572 14.9262L5.81003 8.99789L0.474572 3.07242C-0.158191 2.36935 -0.158191 1.23037 0.474572 0.527303C1.10734 -0.175768 2.13241 -0.175768 2.76517 0.527303L8.09937 6.4584L13.4348 0.530115C14.0676 -0.172955 15.0927 -0.172955 15.7254 0.530115C16.3582 1.23319 16.3582 2.37216 15.7254 3.07523L10.39 9.00351L15.7229 14.929Z" fill="#398245"/>
</svg>
