<svg width="41" height="37" viewBox="0 0 41 37" fill="none" xmlns="http://www.w3.org/2000/svg">
<path d="M20.5 3.03703C11.0529 3.03703 3.41663 9.82481 3.41663 18.2222C3.41663 26.6196 11.0529 33.4074 20.5 33.4074C29.947 33.4074 37.5833 26.6196 37.5833 18.2222C37.5833 9.82481 29.947 3.03703 20.5 3.03703ZM20.5 30.3704C12.9662 30.3704 6.83329 24.9189 6.83329 18.2222C6.83329 11.5256 12.9662 6.07407 20.5 6.07407C28.0337 6.07407 34.1666 11.5256 34.1666 18.2222C34.1666 24.9189 28.0337 30.3704 20.5 30.3704ZM26.6329 10.6296L20.5 16.0811L14.367 10.6296L11.9583 12.7707L18.0912 18.2222L11.9583 23.6737L14.367 25.8148L20.5 20.3633L26.6329 25.8148L29.0416 23.6737L22.9087 18.2222L29.0416 12.7707L26.6329 10.6296Z" fill="#212121"/>
</svg>
