<svg width="18" height="18" viewBox="0 0 18 18" fill="none" xmlns="http://www.w3.org/2000/svg">
<path d="M17.9945 8.98395C17.9945 9.55924 17.5257 10.0099 16.9945 10.0099H15.9944L16.0163 15.1267C16.0163 15.2162 16.01 15.2993 16.0007 15.3856V15.9033C16.0007 16.6097 15.4413 17.1818 14.7506 17.1818H14.2506C14.2162 17.1818 14.1818 17.153 14.1475 17.1786C14.1037 17.153 14.06 17.1818 14.0162 17.1818H12.2505C11.5599 17.1818 11.0005 16.6097 11.0005 15.9033V13.0908C11.0005 12.5251 10.5536 12.0681 10.0004 12.0681H8.00033C7.44718 12.0681 7.00029 12.5251 7.00029 13.0908V15.9033C7.00029 16.6097 6.44089 17.1818 5.75024 17.1818H4.00329C3.95641 17.1818 3.90954 17.1786 3.86266 17.1754C3.82516 17.1786 3.78766 17.1818 3.75016 17.1818H3.25013C2.55979 17.1818 2.00008 16.6097 2.00008 15.9033V12.3238C2.00008 12.295 2.00102 12.2631 2.0029 12.2343V10.0099H1.0016C0.438143 10.0099 0 9.55924 0 8.98395C0 8.69631 0.0938789 8.44063 0.312825 8.21691L8.32535 1.07431C8.5441 0.850139 8.79412 0.818115 9.01287 0.818115C9.23163 0.818115 9.48164 0.882164 9.67228 1.04228L17.6507 8.21691C17.9007 8.44063 18.0289 8.69631 17.9945 8.98395Z" fill="#433F3C"/>
</svg>
