<svg width="46" height="50" viewBox="0 0 46 50" fill="none" xmlns="http://www.w3.org/2000/svg">
<path d="M28.4375 30.2969H17.5625C13.2362 30.2969 9.08701 31.8674 6.02782 34.6628C2.96863 37.4583 1.25 41.2497 1.25 45.2031V45.2031C1.25 45.2031 9.40625 48.5156 23 48.5156C36.5938 48.5156 44.75 45.2031 44.75 45.2031C44.75 41.2497 43.0314 37.4583 39.9722 34.6628C36.913 31.8674 32.7638 30.2969 28.4375 30.2969V30.2969Z" stroke="#212121" stroke-width="2" stroke-miterlimit="10" stroke-linecap="square"/>
<path d="M11.2188 12.1336C11.2188 9.27839 12.46 6.54011 14.6694 4.52116C16.8788 2.50222 19.8754 1.36798 23 1.36798C26.1246 1.36798 29.1212 2.50222 31.3306 4.52116C33.54 6.54011 34.7812 9.27839 34.7812 12.1336C34.7812 18.1094 29.5069 24.5 23 24.5C16.4931 24.5 11.2188 18.1094 11.2188 12.1336Z" stroke="#212121" stroke-width="2" stroke-miterlimit="10" stroke-linecap="square"/>
</svg>
